<?xml version="1.0" encoding="utf-8"?>
<!-- Generator: Adobe Illustrator 16.0.3, SVG Export Plug-In . SVG Version: 6.00 Build 0)  -->
<!DOCTYPE svg PUBLIC "-//W3C//DTD SVG 1.1//EN" "http://www.w3.org/Graphics/SVG/1.1/DTD/svg11.dtd">
<svg version="1.1" id="Capa_1" xmlns="http://www.w3.org/2000/svg" xmlns:xlink="http://www.w3.org/1999/xlink" x="0px" y="0px"
	 width="1080px" height="1080px" viewBox="0 0 1080 1080" enable-background="new 0 0 1080 1080" xml:space="preserve">
<g>
	<path fill-rule="evenodd" clip-rule="evenodd" d="M514.354,579.127c-3.446,8.492-10.611,12.549-17.92,16.504
		c1.461,3.416,3.012,6.307,3.971,9.393c0.942,3.051,1.304,6.293,1.874,9.162c-3.172,1.889-4.27,0.303-5.456-1.379
		c-3.499-4.928-6.779-10.033-10.627-14.668c-10.965-13.168-22.22-26.091-33.266-39.197c-2.79-3.305-5.537-4.152-9.588-1.926
		c-4.044,2.215-8.012,1.029-11.146-2.324c-3.062-3.266-5.99-6.667-8.989-9.995c-1.442-1.596-2.784-3.279-4.368-4.72
		c-4.88-4.455-10.035-4.188-14.212,0.921c-2.466,2.999-4.488,6.365-6.68,9.584c-3.629,5.323-7.081,10.771-10.904,15.937
		c-2.891,3.898-6.012,7.697-9.464,11.109c-9.042,8.957-16.243,9.344-25.355,0.533c-7.972-7.707-15.235-16.157-22.651-24.432
		c-3.243-3.619-6.006-7.675-9.15-11.402c-7.95-9.44-8.16-19.437-3.366-30.484c14.406-33.171,36.978-59.989,64.544-82.706
		c18.465-15.212,39.271-26.25,63.631-28.646c7.151-0.7,14.405-0.422,21.615-0.457c7.439-0.025,13.94,2.878,18.7,8.336
		c8.816,10.13,17.208,20.659,25.519,31.224c1.878,2.383,2.929,5.506,3.968,8.424c2.133,5.989,1.273,9.886-3.931,13.263
		c-8.326,5.396-16.637,11.108-25.691,14.995c-8.413,3.604-12.72,10.552-17.864,16.978c-2.553,3.183-1.005,6.791,1.138,9.754
		c2.846,3.958,5.845,7.807,8.968,11.546c3.641,4.393,5.675,8.846,2.105,14.304c-1.572,2.397-0.121,4.417,1.332,6.354
		c8.185,10.929,16.316,21.905,24.508,32.819C508.392,571.658,511.332,575.275,514.354,579.127z M331.267,526.07
		c-2.627,4.031-1.961,7.408-0.463,10.64c5.256,11.292,12.636,21.019,22.171,29.031c3.848,3.232,8.496,4.707,13.58,4.465
		c4.96-0.228,8.715-2.599,10.749-6.691c-12.284,4.611-15.722,3.766-24.209-6.39c-7.503-8.967-15.031-17.935-19.834-28.779
		C332.98,527.718,332.317,527.245,331.267,526.07z M495.25,459.63c1.051-0.919,2.08-1.476,2.602-2.335
		c3.36-5.602,2.866-11.23-0.57-16.554c-6.063-9.379-13.216-17.911-22.109-24.713c-2.64-2.033-6.295-2.796-9.56-3.91
		c-0.78-0.264-1.868,0.4-3.685,0.859c3.064,2.046,5.423,3.391,7.504,5.084c2.257,1.838,4.405,3.849,6.295,6.064
		c3.652,4.295,7.143,8.76,10.639,13.202C494.436,447.578,494.411,447.59,495.25,459.63z M429.92,541.03
		c0.352,0.373,0.712,0.76,1.063,1.148c0.823-0.375,1.745-0.605,2.46-1.139c9.911-7.247,19.798-14.522,29.672-21.818
		c0.789-0.57,1.717-1.125,2.158-1.925c0.373-0.703,0.388-1.829,0.083-2.566c-0.17-0.399-1.403-0.653-2.038-0.495
		c-0.903,0.228-1.767,0.823-2.516,1.416c-9.039,7.091-18.08,14.197-27.057,21.373C432.318,538.172,431.193,539.686,429.92,541.03z
		 M438.404,547.685c1.837-1.09,2.962-1.584,3.884-2.337c3.329-2.685,6.498-5.565,9.887-8.156c4.95-3.751,10.056-7.297,15.08-10.977
		c1.637-1.197,3.598-2.322,2.531-5.007C462.828,523.469,442.362,540.496,438.404,547.685z"/>
	<path fill-rule="evenodd" clip-rule="evenodd" d="M286.438,304.374c0.894-2.747,1.335-4.986,2.336-6.947
		c3.496-6.848,4.588-13.42,2.069-21.249c-3.922-12.25-1.11-24.569,4.355-35.726c15.204-31.054,40.631-47.319,75.034-49.293
		c6.162-0.35,12.457,0.378,18.592,1.308c8.629,1.308,16.249,5.228,22.933,10.857c2.978,2.517,5.906,5.082,8.81,7.696
		c4.233,3.799,9.005,5.797,14.872,5.41c5.459-0.353,6.644,1.524,4.537,6.691c-1.948,4.769-2.685,9.574-2.396,14.776
		c0.607,10.688,1.19,21.397-1.298,31.999c-4.266,18.322-15.317,31.706-30.676,41.788c-16.119,10.602-34.019,16.315-53.211,17.403
		c-12.624,0.714-24.409-1.9-33.741-11.52c-2.274-2.35-5.145-4.163-7.854-6.053c-4.853-3.399-9.994-5.94-16.181-5.893
		C292.177,305.646,289.717,304.907,286.438,304.374z M348.486,267.717c-0.185,1.247-0.12,1.876-0.351,2.347
		c-1.104,2.275-2.288,4.503-3.438,6.754c-3.462,6.836-1.465,14.124,5.555,17.172c3.752,1.634,8.351,2.493,12.393,2.057
		c12.186-1.343,22.63-7.031,31.343-15.465c2.94-2.858,5.277-6.864,6.572-10.771c3.122-9.43-2.011-16.109-11.946-16.51
		c-1.994-0.072-3.979-0.302-6.668-0.507c0.972-2.759,1.572-4.561,2.241-6.341c0.679-1.816,1.551-3.584,2.105-5.434
		c1.788-5.871,0.808-9.102-4.201-12.647c-2.02-1.429-4.391-2.542-6.776-3.23c-17.766-5.181-38.737,6.463-44.049,24.335
		c-3.015,10.143,0.302,15.346,10.61,16.822C344.091,266.615,346.261,267.235,348.486,267.717z"/>
	<path fill-rule="evenodd" clip-rule="evenodd" d="M191.467,451.099c-0.742-3.474-1.47-5.664-1.646-7.903
		c-0.854-10.637-5.318-18.963-14.896-24.241c-3.746-2.068-7.43-4.281-11.009-6.643c-5.796-3.811-11.529-4.005-17.596-0.568
		c-2.232,1.271-4.665,3.037-8.12,0.979c0.849-2.128,1.434-4.38,2.562-6.33c13.685-23.597,27.232-47.281,44.262-68.748
		c9.794-12.357,21.592-21.434,37.539-23.759c6.994-1.028,13.749-2.335,20.234-5.299c3.742-1.719,5.12-0.908,5.519,3.122
		c0.798,7.77,3.911,14.618,7.466,21.373c3.305,6.258,5.849,12.67,5.559,20.005c-0.145,3.883,0.919,4.441,5.056,4.441
		c9.14,0.023,18.274-0.049,27.402,0.266c5.299,0.183,9.994-1.282,14.461-3.848c1.341-0.776,2.574-1.767,3.931-2.53
		c1.794-0.98,3.971-3.17,5.558-0.812c0.771,1.149-0.182,4.092-1.189,5.689c-7.355,11.714-14.991,23.248-22.398,34.939
		c-2.806,4.43-5.143,9.173-7.89,13.662c-1.31,2.13-2.833,4.26-4.686,5.907c-2.614,2.347-5.167,1.476-6.156-1.925
		c-0.583-2.046-0.728-4.225-1.029-6.355c-0.86-5.892-2.02-7.139-8.083-7.962c-3.086-0.422-6.249-0.364-9.307-0.859
		c-5.762-0.932-9.828,1.512-12.941,6.04c-2.164,3.171-4.211,6.414-6.825,10.407c7.66,4.43,14.584,8.69,21.798,12.417
		c1.804,0.943,4.513,0.288,6.785,0.132c2.411-0.169,4.809-0.617,8.573-1.137c-1.32,3.485-1.804,5.929-3.053,7.914
		c-8.462,13.554-17.05,27.036-25.716,40.471c-1.233,1.909-2.932,3.702-4.778,5.02c-2.676,1.9-5.074,0.605-5.17-2.662
		c-0.059-1.707,0.473-3.448,0.823-5.156c1.305-6.231-0.512-11.582-5.955-14.63c-5.903-3.292-12.248-5.93-18.648-8.083
		c-4.608-1.549-9.205,0.084-13.311,2.783C196.717,448.463,194.633,449.392,191.467,451.099z M212.821,395.369
		c1.878-2.021,3.934-3.45,4.877-5.421c3.523-7.309,6.841-14.74,9.901-22.255c0.903-2.252,1.015-4.95,1.015-7.444
		c-0.024-8.337-6.399-13.19-14.474-11.291c-4.547,1.066-8.271,3.473-11.212,6.948c-3.764,4.44-7.441,8.99-10.811,13.735
		c-1.89,2.65-5.63,5.532-2.744,9.147c2.843,3.572,6.779,1.369,10.237,0.208c2.853-0.969,5.688-1.974,9.325-3.231
		C209.483,382.868,206.276,389.718,212.821,395.369z"/>
	<path fill-rule="evenodd" clip-rule="evenodd" d="M824.022,424.862c3.329,0.482,5.556,0.812,7.793,1.15
		c4.272,0.617,8.145-0.328,11.425-3.171c4.464-3.861,5.206-7.866,2.071-12.888c-5.762-9.271-11.644-18.457-17.611-27.593
		c-2.928-4.455-3.909-4.563-8.628-2.215c-1.394,0.69-2.757,1.466-4.162,2.117c-4.675,2.192-7.433,5.545-7.007,11.001
		c0.07,0.873-0.195,1.769-0.327,2.784c-7.26-3.654-37.215-45.951-37.798-53.49c1.563,0.326,3.077,0.412,4.405,0.956
		c10.267,4.308,20.707,2.59,31.093,0.873c4.853-0.801,7.686-4.105,8.739-9.067c1.44-6.813,3.422-7.817,8.918-3.981
		c8.882,6.196,18.587,6.536,28.584,4.635c9.923-1.889,19.776-4.271,29.625-6.546c4.513-1.053,7.454-4.056,9.125-8.302
		c0.995-2.505,1.89-5.06,2.87-7.674c4.31-0.083,5.795,3.233,7.55,5.811c6.84,9.948,13.529,20.016,20.186,30.085
		c4.72,7.151,9.318,14.39,13.918,21.626c1.113,1.741,1.961,3.656,3.413,6.403c-2.806,0-4.744,0.349-6.483-0.062
		c-5.984-1.44-10.302,1.101-13.703,5.566c-3.193,4.164-6.196,8.497-9.041,12.916c-3.909,6.064-7.578,12.271-11.348,18.405
		c-3.561,5.786-4.701,11.874-2.436,18.432c0.373,1.103,0.604,2.263,0.739,3.413c0.556,4.769-0.265,5.689-4.879,4.78
		c-5.176-1.027-9.085,0.617-12.318,4.671c-2.057,2.59-4.335,5.022-6.705,7.335c-5.627,5.458-8.798,11.81-7.88,19.848
		c0.12,1.125,0.013,2.275,0.013,4.803c-2.661-1.899-4.864-2.808-6.086-4.441c-10.663-14.159-21.166-28.438-31.636-42.745
		C825.499,429.001,825.089,427.306,824.022,424.862z M881.892,369.132c-0.435-0.581-0.867-1.151-1.304-1.732
		c-8.472,2.047-16.959,4.093-25.572,6.162c2.578,6.546,10.118,16.906,14.063,19.375
		C873.361,384.985,877.622,377.059,881.892,369.132z"/>
	<path fill-rule="evenodd" clip-rule="evenodd" d="M469.798,236.905c7.31-4.128,47.959-7.502,57.396-4.575
		c-0.916,1.876-1.653,3.717-2.683,5.375c-2.783,4.524-2.105,7.696,2.806,9.815c7.793,3.351,15.951,3.327,24.084,1.486
		c3.555-0.797,5.676-3.291,6.221-6.947c0.527-3.616-0.604-6.813-3.646-8.663c-3.119-1.888-6.58-3.366-10.055-4.502
		c-7.756-2.556-15.854-4.236-23.404-7.299c-9.341-3.789-18.274-8.605-27.371-12.984c-5.58-2.688-11.176-5.35-16.712-8.11
		c-1.132-0.569-2.92-1.645-2.861-2.346c0.108-1.247,1.159-2.773,2.263-3.486c5.364-3.471,8.629-8.337,10.374-14.364
		c5.882-20.428,20.157-30.583,40.574-33.499c13.099-1.874,26.104-1.838,38.91,1.428c13.203,3.377,23.379,10.504,27.371,24.411
		c1.455,5.094,4.168,9.099,9.344,11.291c1.464,0.617,2.374,2.567,3.549,3.896c-1.538,1.042-2.941,2.556-4.636,3.002
		c-2.409,0.627-5.011,0.544-7.55,0.642c-11.289,0.387-22.595,0.834-33.886,1.063c-6.428,0.122-7.371-1.586-4.482-7.198
		c0.27-0.522,0.635-1.006,0.871-1.526c1.999-4.26,0.997-7.191-3.516-8.715c-7.49-2.516-14.998-2.213-22.232,1.09
		c-3.367,1.538-5.713,4.176-5.885,8.073c-0.166,3.676,2.444,5.709,5.292,7.043c4.042,1.9,8.254,3.414,12.45,4.924
		c10.988,3.969,22.147,7.505,32.955,11.884c9.502,3.85,17.753,9.729,23.975,18.142c2.771,3.753,6.585,5.905,10.975,7.358
		c1.646,0.544,2.978,2.069,4.455,3.157c-1.003,1.344-1.902,2.783-3.012,4.03c-2.958,3.305-6.426,6.221-8.946,9.815
		c-7.308,10.48-17.125,17.547-28.96,21.783c-22.639,8.132-45.065,7.855-67.021-2.625c-7.54-3.596-13.771-8.895-18.975-15.309
		c-4.563-5.64-8.918-11.375-15.771-14.498c-0.667-0.302-1.172-1.016-1.681-1.599C470.146,238.091,470.101,237.668,469.798,236.905z"
		/>
	<path fill-rule="evenodd" clip-rule="evenodd" d="M628.722,523.348c-1.89-4.938-3.424-9.574-5.386-14.014
		c-6.634-15.057-8.304-30.607-5.918-46.872c1.341-9.112,3.012-18.031,6.085-26.721c1.224-3.449,3.113-5.966,6.162-8.143
		c5.805-4.153,11.652-7.384,19.062-8.014c4.549-0.386,8.905-2.735,13.394-4.029c4.236-1.222,5.617-0.35,6.801,3.85
		c1.165,4.101-0.253,7.829-2.227,11.168c-2.734,4.635-4.112,8.871-1.111,14.122c3.048,5.364,5.372,11.16,7.808,16.859
		c2.343,5.519,4.729,11.048,6.523,16.761c1.92,6.124,3.202,12.454,4.717,18.712c3.569,14.688,2.213,29.031-3.28,43.031
		c-1.961,5-2.374,5.254-7.658,3.293c-3.246-1.198-6.51-1.101-8.825,1.102c-5.577,5.299-11.086,3.208-16.725,0.605
		c-1.924-0.883-3.705-2.104-5.24-3.002c-2.25,1.175-4.319,2.191-6.316,3.328c-0.969,0.543-2.127,1.113-2.661,1.996
		c-2.989,4.976-5.822,10.056-8.957,15.554c0.641,0.385,1.137,0.664,1.611,0.965c3.958,2.53,4.465,4.188,1.026,6.948
		c-5.142,4.115-10.585,7.915-16.239,11.292c-4.794,2.881-10.057,4.984-14.828,7.283c-0.084,0.994-0.303,1.5-0.13,1.732
		c3.533,4.646,3.397,5.496-1.911,7.904c-6.819,3.086-13.083,6.777-17.451,13.518c1.063,0.83,2.081,1.398,2.817,2.236
		c1.622,1.816,1.428,3.775-0.653,4.9c-6.982,3.766-14.088,7.324-22.149,11.484c0.632-2.336,0.996-3.52,1.261-4.729
		c0.548-2.459,1.875-5.096,1.406-7.346c-1.188-5.654,1.183-9.467,4.645-13.482c3.024-3.496,5.081-7.82,7.699-11.701
		c4.354-6.453,8.81-12.83,13.237-19.234c1.33-1.922,3.026-2.685,5.504-2.309c6.585,0.979,12.496-2.169,15.057-8.206
		c2.485-5.87,4.72-11.848,6.66-17.91c0.735-2.313,0.834-5.072,0.388-7.469c-0.74-3.957,0.808-6.294,4-8.168
		C620.755,528.395,624.512,525.963,628.722,523.348z"/>
	<path fill-rule="evenodd" clip-rule="evenodd" d="M704.166,308.912c2.031-0.508,4.029-1.101,6.073-1.51
		c16.239-3.294,24.517-15.479,21.576-31.818c-1.076-5.93-1.11-6.087,4.664-7.395c6.855-1.549,12.053-5.119,15.645-11.216
		c3.156-5.375,6.688-10.53,9.926-15.869c2.407-3.979,2.14-5.518-1.298-8.614c-6.569-5.908-14.477-8.471-23.126-8.229
		c-11.57,0.339-10.057-2.469-6.209-10.047c2.99-5.905,6.122-11.737,9.468-17.46c3.128-5.386,4.33-5.667,9.688-2.206
		c18.527,11.935,37.048,23.877,55.431,36.017c11.227,7.418,22.242,15.14,33.294,22.825c5.067,3.508,5.199,4.538,2.321,10.105
		c-2.963,5.712-5.895,11.423-8.873,17.125c-0.822,1.549-1.631,3.121-2.676,4.513c-3.458,4.625-6.242,4.44-8.141-0.991
		c-2.883-8.194-7.078-15.166-14.754-19.656c-1.172-0.678-2.347-1.378-3.592-1.936c-4.405-1.983-5.062-1.864-7.686,2.022
		c-3.598,5.338-7.18,10.685-10.533,16.167c-3.46,5.664-5.139,11.582-2.806,18.347c1.674,4.805,0.642,5.992-4.621,5.785
		c-6.489-0.254-11.342,2.24-14.865,7.526c-1.933,2.917-3.748,5.919-5.638,8.873c-3.484,5.446-4.525,11.073-1.692,17.197
		c0.592,1.282,0.423,2.916,0.592,4.394c-3.823,1.67-6.548-0.133-9.101-1.77c-8.872-5.663-17.654-11.471-26.443-17.269
		c-4.224-2.795-8.472-5.579-12.55-8.58c-1.767-1.295-3.133-3.123-4.68-4.697C703.765,310.001,703.972,309.456,704.166,308.912z"/>
	<path fill-rule="evenodd" clip-rule="evenodd" d="M707.128,181.818c-2.516,1.694-4.211,2.879-5.94,4.004
		c-5.269,3.389-9.125,7.722-10.493,14.109c-1.344,6.271-2.929,12.504-4.674,18.675c-2.02,7.2-0.456,13.457,4.211,19.109
		c0.607,0.738,1.153,1.549,1.649,2.386c0.182,0.301,0.096,0.749,0.204,1.936c-1.449,0.603-3.074,1.56-4.815,1.971
		c-6.974,1.683-11.062,5.978-12.781,12.912c-1.366,5.472-2.986,10.893-4.717,16.254c-1.961,6.051-1.948,11.835,1.146,17.522
		c0.69,1.271,0.922,2.785,1.381,4.26c-8.462,1.211-52.705-12.96-60.342-19.411c1.675-1.15,3.103-2.286,4.675-3.183
		c14.143-8.097,19.528-20.719,18.089-36.379c-0.36-4.054-2.757-7.963-4.405-11.859c-0.579-1.392-1.668-2.554-2.891-4.344
		c1.608-0.8,2.845-1.659,4.222-2.034c8.025-2.251,13.389-7.625,15.554-15.308c2.046-7.238,3.061-14.852,3.668-22.367
		c0.252-3.266-1.563-6.74-2.666-10.043c-0.786-2.36-1.961-4.587-3.273-7.601c2.45-0.412,4.377-1.257,6.059-0.92
		c18.381,3.692,36.137,9.354,52.935,17.791C704.745,179.71,705.398,180.45,707.128,181.818z"/>
	<path fill-rule="evenodd" clip-rule="evenodd" d="M594.108,686.785c-3.338-0.447-6.684-1.184-10.034-1.307
		c-8.558-0.316-16.431-3.207-24.275-6.148c-5.564-2.082-7.115-7.355-3.813-12.365c1.888-2.871,4.138-5.498,6.669-8.814
		c-2.01-0.543-3.209-0.918-4.429-1.197c-6.838-1.549-13.746-2.832-20.487-4.709c-3.077-0.857-6.136-2.488-8.666-4.449
		c-5.894-4.563-6.098-8.887-1.671-15.129c2.251-3.16,4.405-6.449,6.063-9.951c1.974-4.139,1.11-5.385-3.449-6.531
		c-1.646-0.412-3.28-0.824-4.864-1.227c1.291-9.727,4.947-12.586,13.699-11.107c1.139,0.193,2.262,0.596,3.4,0.822
		c14.428,2.939,15.271,13.385,11.002,23.479c-0.523,1.225-1.174,2.371-2.084,4.188c2.746,0.896,5.121,1.609,7.441,2.445
		c8.811,3.135,17.731,6.014,26.385,9.547c9.994,4.078,11.196,10.59,3.884,18.482c-1.041,1.111-2.046,2.262-3.448,3.814
		c1.477,0.555,2.456,1.16,3.485,1.268c11.869,1.211,22.738,5.855,33.063,11.217c9.608,4.998,10.007,11.775,4.152,19.172
		c-1.89,2.395-4.152,4.477-6.516,6.98c0.945,0.619,1.514,1.246,2.182,1.369c10.743,2.143,18.912,8.326,25.097,16.969
		c10.663,14.908,20.916,30.119,31.274,45.246c1.485,2.18,3.582,4.551,0.533,7.18c-2.494,2.143-5.303,1.775-8.11-1.406
		c-8.483-9.684-16.969-19.377-25.27-29.203c-6.196-7.334-13.902-12.416-22.436-16.504c-7.565-3.631-15.238-7.094-22.449-11.332
		c-4.454-2.596-8.145-6.518-12.176-9.846c-5.37-4.43-4.224-12.807,2.299-17.586c1.162-0.85,2.46-1.527,3.706-2.287
		C594.217,687.512,594.158,687.15,594.108,686.785z"/>
	<path fill-rule="evenodd" clip-rule="evenodd" d="M492.777,698.766c4.331-1.27,5.823-4.355,6.97-7.734
		c1.443-4.246,2.737-8.553,4.405-12.705c0.497-1.209,2.068-1.973,3.15-2.953c0.857,1.332,1.946,2.564,2.479,4.006
		c0.447,1.197,0.243,2.652,0.389,4.816c1.511-1.029,2.713-1.537,3.462-2.422c5.117-6.113,7.756-12.947,6.098-21.092
		c-0.819-4.041,0.314-4.891,4.236-3.498c0.702,0.242,1.368,0.605,2.117,0.957c4.563-6.43,8.982-0.748,14.403-0.764
		c-4.757,11.168-9.141,21.447-13.401,31.467c6.043,6.318,6.172,6.859-0.786,10.926c-13.965,8.17-28.108,15.975-42.188,23.941
		c-1.341,0.762-2.697,1.521-3.979,2.371c-0.269,0.156-0.29,0.678-0.629,1.588c1.356,0.516,2.784,0.914,4.054,1.592
		c2.494,1.311,2.904,3.523,0.583,5.01c-6.391,4.082-12.72,8.412-19.595,11.498c-4.84,2.193-8.81,4.746-11.68,9.15
		c-4.982,7.686-10.143,15.26-15.054,22.99c-1.781,2.797-4.017,4.262-7.151,5.436c-4.282,1.6-8.16,4.348-12.118,6.742
		c-1.126,0.689-1.788,2.252-2.95,2.773c-1.419,0.627-3.136,0.578-4.72,0.82c-0.037-1.584-0.592-3.387-0.025-4.707
		c1.732-4.104,3.925-8,5.849-12.016c0.493-1.039,1.184-2.408,0.881-3.33c-1.683-5.141,1.937-7.053,5.313-9.004
		c10.191-5.879,18.154-13.975,24.325-23.949c3.077-4.977,6.452-9.756,9.646-14.656c3.862-5.928,8.628-10.916,13.992-15.59
		c4.944-4.318,8.866-9.789,13.32-14.689c1.236-1.365,2.747-2.504,4.128-3.752c1.225,1.588,2.47,3.145,3.644,4.76
		C492.271,697.193,492.392,697.801,492.777,698.766z"/>
	<path fill-rule="evenodd" clip-rule="evenodd" d="M620.926,516.353c-10.229,1.259-18.131-4.283-26.697-7.877
		c0.797-3.013,2.396-5.688,1.804-7.709c-0.583-1.937-3.425-3.194-5.65-5.071c1.766-2.48,3.785-5.337,5.811-8.181
		c-0.354-0.338-0.716-0.678-1.066-1.015c-2.314,1.839-4.624,3.676-6.898,5.483c-3.26-1.565-6.49-3.125-10.18-4.917
		c0.943-2.371,1.902-4.79,3.185-8.035c-4.225-0.267-7.976-0.506-12.045-0.76c0.041-4.65-1.729-7.794-6.785-8.353
		c-1.115-0.119-2.956-1.344-3.026-2.166c-0.303-4.09-3.173-4.866-6.267-5.784c-1.348-0.401-2.484-1.489-4.578-2.819
		c2.357-1.562,3.898-2.604,5.443-3.606c3.915-2.505,7.916-4.878,11.709-7.541c3.661-2.589,7.151-5.422,10.636-8.24
		c1.487-1.222,3.118-2.481,4.09-4.081c4.211-6.873,10.118-8.496,16.988-4.416c0.79,0.46,1.65,0.824,3.561,1.767
		c-0.736-2.927-1.21-4.866-1.694-6.802c6.774-5.216,14.498-5.723,20.959-1.04c1.101,0.8,2.133,3.048,1.794,4.222
		c-2.978,10.192-6.279,20.296-9.704,31.117c-0.136-1.803-0.389-3.194-0.305-4.563c0.255-3.897,0.773-7.782,0.931-11.666
		c0.146-3.377-0.676-6.426-4.658-8.618c-0.364,1.901-0.811,3.11-0.777,4.322c0.146,4.877,0.592,9.74,0.629,14.618
		c0.038,4.465-2.127,5.809-5.869,3.39c-1.982-1.283-3.508-3.547-4.754-5.651c-1.467-2.447-2.299-5.292-5.496-6.948
		c-1.921,3.908,0.4,6.995,1.31,10.928c-7.783-1.417-15.093-4.805-22.933-0.401c3.231,1.056,6.475,2.109,10.577,3.45
		c-2.762,2.556-5.148,4.744-8.508,7.854c2.49,0.219,3.591,0.617,4.476,0.329c2.772-0.897,5.433-2.13,8.19-3.1
		c6.188-2.178,12.141-1.669,18.421,1.622c-3.849,6.403-10.26,9.912-14.496,16.17c5.204,1.016,7.201-2.967,10.143-4.855
		c3.157-2.033,5.175-5.868,10.518-6.146c-0.135,2.299,0.06,4.333-0.413,6.184c-1.491,5.857-3.243,11.653-4.842,17.489
		c-0.318,1.173-0.36,2.432-0.654,4.453c4.707-2.324,4.294-6.583,5.786-9.742C612.188,491.798,619.717,509.382,620.926,516.353z"/>
	<path fill-rule="evenodd" clip-rule="evenodd" d="M654.414,551.811c11.566-0.627,22.676-3.593,34.005-0.798
		c11.421,2.831,22.039,0.823,31.903-5.505c1.912-1.237,3.77-2.797,6.215-0.412c0.57,0.544,3.113-0.085,4.031-0.944
		c3.111-2.894,5.981-6.074,8.787-9.271c1.124-1.282,1.89-2.891,2.784-4.319c0.555,0.243,1.124,0.35,1.161,0.531
		c0.873,6.1,2.118,6.609,7.041,2.919c3.995-2.992,7.007-6.73,8.768-11.45c0.505-1.394,1.159-2.724,2.127-3.957
		c-1.199,8.289-2.337,16.578-6.268,24.069c-2.068,3.957-4.467,7.781-7.105,11.388c-1.815,2.492-3.267,4.756-1.427,7.893
		c-4.018,2.213-8.435,3.846-6.887,9.39c-4.778,3.121-13.605,1.294-11.909,10.165c-3.193,0.775-6.063,1.791-9.005,2.096
		c-2.867,0.303-5.928,0.35-8.687-0.354c-4.551-1.148-8.739-1.148-13.071,0.859c-1.622,0.752-3.835,0.703-5.666,0.377
		c-3.662-0.668-6.93-3.318-11.144-0.992c-1.126,0.615-4.126-1.031-5.58-2.373c-5.552-5.18-10.962-10.529-16.157-16.072
		C655.359,561.879,654.645,558.577,654.414,551.811z M682.698,553.978c-2.411-2.142-3.685-0.761-4.918,0.51
		c-1.745,1.815-3.135,4.208-5.228,5.373c-1.961,1.101-4.649,0.931-7.101,1.329c4.427,7.844,18.839,17.563,24.225,16.352
		c-1.696-1.635-3.317-3.219-4.948-4.779c4.998,0.119,9.279,1.449,13.651,1.801c4.26,0.352,7.26,5.35,12.756,3.173
		c-2.154-2.335-3.899-4.225-6.184-6.705c8.616-4.526,19.338-4.042,24.505-12.926c-0.217-0.472-0.426-0.944-0.643-1.427
		c-2.903,1.063-5.811,2.141-9.377,3.449c1.088-2.931,1.945-5.23,2.797-7.53c-0.438-0.338-0.874-0.677-1.308-1.015
		c-8.037,6.535-14.052,16.375-26.953,17.438c2.652-4.041,4.757-7.248,6.847-10.455c-0.382-0.291-0.77-0.592-1.175-0.896
		c-2.746,2.759-5.493,5.52-8.24,8.28c-0.215-0.159-0.418-0.316-0.625-0.485c0.481-1.852,0.98-3.717,1.477-5.566
		c-4.697,3.449-7.793,10.006-15.263,4.768C679.014,560.863,680.895,557.355,682.698,553.978z"/>
	<path fill-rule="evenodd" clip-rule="evenodd" d="M726.904,483.933c0,12.016,0.592,23.476-0.207,34.84
		c-0.558,7.878-4.753,14.85-9.923,20.864c-6.172,7.19-14.221,9.27-23.306,7.081c-4.516-1.09-5.294-2.894-3.425-7.227
		c3.445-8.071,4.137-16.628,4.294-25.219c0.096-5.024,1.319-9.018,5.604-12.115c1.961-1.417,2.892-4.149,4.67-5.905
		c2.152-2.13,4.452-4.901,7.124-5.532c4.528-1.053,8.401-2.94,12.156-5.433C724.626,484.792,725.535,484.537,726.904,483.933z"/>
	<path fill-rule="evenodd" clip-rule="evenodd" d="M549.439,602.701c-3.113-0.777-4.938-1.232-6.766-1.695
		c-1.316-0.324-2.626-0.762-3.967-0.965c-9.926-1.514-13.965,1.088-16.761,10.742c-2.241,7.686-2.229,7.686,4.8,12.443
		c0.447,0.303,0.765,0.809,0.972,1.029c-2.479,4.256-4.758,8.445-7.338,12.424c-0.604,0.922-2.223,1.348-3.468,1.65
		c-3.367,0.836-6.754,1.658-10.179,2.104c-1.795,0.232-4.055,0.268-5.457-0.627c-2.121-1.346-0.666-3.424,0.145-5.195
		c4.994-10.924,5.817-22.082,1.548-33.424c-1.125-2.977-0.74-4.938,2.639-5.639c3.801-0.777,5.955-3.389,7.62-6.631
		c2.387-4.59,5.753-7.021,11.333-5.957c6.158,1.176,10.952-0.979,13.974-6.826c1.187-2.297,2.521-4.852,5.931-5.639
		C546.09,580.99,547.662,591.156,549.439,602.701z"/>
	<path fill-rule="evenodd" clip-rule="evenodd" d="M913.166,837.322c-1.681,1.572-2.747,3.221-4.227,3.813
		c-3.943,1.572-8.397,2.094-12.017,4.162c-3.435,1.961-5.919,5.533-9.112,8.023c-1.399,1.08-3.533,1.232-5.32,1.816
		c-0.281-0.484-0.571-0.969-0.852-1.453c0.958-1.014,1.832-2.117,2.883-3.025c1.621-1.377,3.495-2.5,5.018-3.98
		c1.81-1.766,2.46-3.777,0.901-6.283c-2.365-3.764-4.434-7.709-6.319-11.012c-5.013,2.143-9.656,4.008-14.185,6.113
		c-3.352,1.545-6.618,3.289-9.775,5.191c-4.26,2.541-8.392,5.314-13.107,8.326c1.766,3.629,3.764,7.793,5.832,11.934
		c1.126,2.234,3.087,2.963,5.41,2.371c2.054-0.521,4.015-1.428,6.076-1.998c1.32-0.361,2.711-0.41,4.621-0.678
		c-0.678,4.318-3.706,5.299-6.015,5.627c-7.142,1.027-12.96,4.18-18.286,8.871c-1.659,1.48-4.307,1.854-6.498,2.725
		c-0.315-0.438-0.627-0.871-0.935-1.311c0.632-0.967,1.091-2.141,1.939-2.854c1.175-0.996,2.697-1.551,3.97-2.432
		c4.535-3.186,4.938-4.721,2.553-9.709c-4.115-8.604-8.289-17.174-12.393-25.787c-2.941-6.15-2.241-9.488,3.206-13.627
		c1.97-1.486,4.319-2.662,6.677-3.402c6.612-2.055,12.544-5.141,17.893-9.584c2.164-1.799,4.997-3.086,7.743-3.834
		c6.073-1.672,8.774-0.34,11.992,5.203c4.914,8.395,9.767,16.844,14.692,25.244c2.603,4.432,3.644,4.67,8.534,3.184
		C906.677,838.145,908.881,835.398,913.166,837.322z M880.572,823.178c-2.056-3.635-3.968-7.227-6.085-10.701
		c-1.983-3.258-3.777-3.799-7.282-2.191c-1.565,0.701-2.849,1.998-4.362,2.834c-5.579,3.072-11.169,6.102-16.819,9.041
		c-1.526,0.787-3.399,0.965-4.88,1.826c-3.652,2.133-4.244,4.33-2.417,8.16c1.329,2.789,2.784,5.535,4.089,8.348
		c1.074,2.336,2.929,3.143,5.228,2.457c1.816-0.547,3.693-1.32,5.146-2.469c6.171-4.891,12.984-8.498,20.5-10.738
		C876.919,828.791,879.074,826.854,880.572,823.178z"/>
	<path fill-rule="evenodd" clip-rule="evenodd" d="M813.02,834.842c-1.368,1.064-2.688,2.215-4.125,3.18
		c-4.396,3.006-4.863,4.313-2.832,9.141c3.85,9.148,7.723,18.283,11.629,27.41c2.19,5.119,3.439,5.629,9.09,4.176
		c1.739-0.449,3.533-0.738,5.314-1.104c0.253,0.512,0.519,1.045,0.771,1.563c-1.305,1.033-2.503,2.734-3.956,2.979
		c-7.13,1.16-13.542,3.713-19.278,8.152c-1.175,0.926-3.107,0.863-4.695,1.236c-0.281-0.471-0.567-0.939-0.849-1.426
		c1.237-1.113,2.325-2.445,3.706-3.318c5.709-3.578,6.076-4.514,3.446-10.83c-1.199-2.854-2.453-5.688-3.811-8.811
		c-13.142,4.977-26.104,9.877-39.418,14.908c0.268,4.867,2.314,9.273,4.188,13.592c1.354,3.115,4.671,1.973,7.346,1.795
		c1.902-0.137,3.814-0.26,6.244-0.414c-1.536,4.225-4.634,4.783-7.078,4.707c-5.567-0.184-9.985,1.912-14.412,4.877
		c-2.034,1.369-4.587,3.207-7.441,1.283c-0.57-3.027,1.874-3.072,3.468-3.887c5.761-2.914,6.221-3.965,4.201-9.992
		c-2.892-8.68-5.832-17.332-8.764-25.996c-2.429-7.227-2.445-7.18-9.908-6.162c-1.355,0.186-2.787-0.191-4.806-0.377
		c2.602-4.91,6.862-4.629,10.077-4.441c3.367,0.197,5.413-0.986,7.771-2.768c2.581-1.949,5.327-3.873,8.789-3.426
		c1.405,2.66-0.326,3.33-1.874,4.232c-6.526,3.814-6.539,3.877-4.033,10.98c0.836,2.393,1.632,4.793,2.54,7.164
		c1.456,3.852,3.223,4.754,7.128,3.729c0.197-0.051,0.392-0.086,0.558-0.17c8.699-4.891,17.816-8.521,27.668-10.594
		c4.873-1.023,5.688-4.174,3.773-8.988c-1.076-2.713-2.201-5.408-3.396-8.074c-1.918-4.256-3.259-4.889-7.714-4.037
		c-1.948,0.373-3.931,0.533-6.764,0.893c2.069-5.045,5.94-5.25,9.101-5.385c3.607-0.145,6.125-1.332,8.715-3.727
		C805.76,834.719,808.593,832.334,813.02,834.842z"/>
	<path fill-rule="evenodd" clip-rule="evenodd" d="M691.335,397.886c-7.78,3.342-8.788,4.949-7.916,13.106
		c1.104,10.263,2.823,20.479,3.354,30.766c0.4,7.418,0.918,14.654,3.002,21.865c3.016,10.469,1.775,21.265,1.319,31.962
		c-0.013,0.449-0.486,0.885-1.174,2.084c-0.534-1.889-0.98-3.064-1.175-4.274c-2.43-15.14-6.705-29.419-15.55-42.406
		c-4.177-6.11-6.462-13.795-1.479-21.396c2.617-3.992,2.374-8.555,1.126-13.021c-0.68-2.433-1.743-4.755-2.396-7.202
		c-2.349-8.942,2.541-15.356,11.645-15.295C685.487,394.097,689.251,393.348,691.335,397.886z"/>
	<path fill-rule="evenodd" clip-rule="evenodd" d="M697.362,493.502c-5.214-10.031-1.84-23.271,6.791-28.245
		c3.012-1.731,6.313-3.013,9.581-4.234c10.617-3.98,15.06-10.433,14.887-21.784c-0.049-3.061-0.009-6.111-0.009-9.96
		c1.437,1.248,2.54,1.951,3.301,2.906c2.192,2.747,4.032,5.785,6.376,8.362c5.579,6.146,6.575,12.963,3.717,20.586
		c-0.955,2.553-1.438,5.277-2.469,7.793c-1.739,4.308-5.179,5.628-9.477,3.934c-5.737-2.275-6.874-1.998-10.768,2.734
		c-0.62,0.75-1.126,1.586-1.732,2.358c-1.742,2.241-3.848,2.808-6.706,2.059c-6.205-1.633-7.854-0.702-10.249,5.145
		C699.554,487.742,698.574,490.371,697.362,493.502z"/>
	<path fill-rule="evenodd" clip-rule="evenodd" d="M629.11,934.635c2.31-0.895,3.906-1.609,5.564-2.127
		c5.323-1.688,6.267-3.346,5.423-9.006c-1.418-9.439-2.784-18.895-4.058-28.346c-0.881-6.52-1.428-7.064-8.024-7.346
		c-1.415-0.059-2.82-0.414-4.671-0.699c1.866-4.314,5.146-3.859,7.72-3.391c4.628,0.859,9.005,1.744,13.373-0.994
		c1.008-0.641,2.677-0.41,4.022-0.289c5.349,0.463,10.331-0.592,15.377-2.516c2.907-1.113,6.489-1.104,9.661-0.729
		c2.964,0.354,5.284,2.279,5.809,5.717c0.376,2.504,0.919,4.98,1.608,7.418c1.477,5.248,1.825,10.129-3.35,12.959
		c0.992,4.057,2.03,7.541,2.688,11.098c0.914,5.061,2.551,6.654,7.656,6.936c1.572,0.096,3.147,0.303,5.327,0.521
		c-5.436,6.17-16.365,3.895-18.601-3.037c-0.706-2.203-0.766-4.6-1.204-6.898c-0.914-4.795-3.127-6.879-8.032-6.646
		c-3.265,0.158-6.508,1.039-9.704,1.865c-3.33,0.859-6.585,2.035-10.602,3.289c0.533,4.057,0.979,8.629,1.788,13.145
		c0.604,3.412,3.403,3.799,6.307,3.906c2.097,0.086,4.174,0.412,7.131,0.727c-3.296,4.707-7.143,3.752-10.275,3.268
		c-3.826-0.564-6.985-0.107-10.459,1.613C636.752,936.463,633.317,938.424,629.11,934.635z M650.927,887.559
		c-0.073-0.27-0.133-0.535-0.204-0.813c-0.971,0-1.938-0.023-2.919,0.01c-5.154,0.172-6.511,1.795-5.773,6.949
		c0.412,2.891,0.739,5.783,1.332,8.643c0.896,4.342,2.907,5.504,7.103,4.248c2.229-0.668,4.347-1.84,6.608-2.18
		c4.199-0.619,8.459-0.813,12.698-1.164c4.944-0.398,6.508-2.371,5.563-7.199c-0.517-2.662-1.099-5.311-1.706-7.961
		c-1.222-5.424-2.843-6.123-8.213-4.422C660.658,885.199,655.755,886.287,650.927,887.559z"/>
	<path fill-rule="evenodd" clip-rule="evenodd" d="M321.584,854.422c4.744-1.584,8.181,1.248,11.267,4.066
		c2.048,1.867,3.995,2.551,6.668,2.734c2.821,0.205,5.774,0.922,8.29,2.154c5.518,2.701,11.228,4.174,17.307,4.9
		c2.925,0.34,5.968,1.695,8.446,3.34c2.94,1.939,3.921,4.879,2.854,8.703c-2.673,9.561-4.911,19.242-7.331,28.863
		c-2.191,8.74-7.564,11.572-16.036,8.385c-1.452-0.539-2.771-1.486-4.251-1.908c-5.213-1.502-10.453-2.879-15.706-4.262
		c-1.862-0.498-4.199-0.289-5.577-1.365c-5.117-3.994-11.036-4.938-17.198-5.652c-1.853-0.219-3.583-1.564-5.373-2.398
		c0.107-0.52,0.23-1.039,0.326-1.557c1.902,0,3.835-0.26,5.688,0.043c5.484,0.898,6.899,0.221,8.666-5.047
		c3.185-9.414,6.316-18.828,9.402-28.27c1.584-4.836,1.079-5.939-3.277-8.482c-1.575-0.92-3.135-1.863-4.698-2.797
		C321.232,855.391,321.411,854.906,321.584,854.422z M341.807,865.23c-4.045-0.426-5.762,0.727-6.985,4.416
		c-3.059,9.246-6.102,18.504-9.064,27.773c-1.824,5.715,0.028,8.607,6.271,9.5c7.578,1.09,14.837,2.979,21.783,6.309
		c4.793,2.299,7.186,1.039,8.555-4.029c2.555-9.41,5.024-18.824,7.479-28.238c1.708-6.555,0.463-8.363-6.554-8.932
		c-6.138-0.482-11.863-2.113-17.282-4.973C344.467,866.246,342.809,865.668,341.807,865.23z"/>
	<path fill-rule="evenodd" clip-rule="evenodd" d="M418.461,905.166c0.873,2.383,1.854,4.141,2.069,5.994
		c0.123,1-0.959,2.998-1.658,3.084c-1.274,0.146-3.765-0.668-3.848-1.334c-1.286-9.221-9.079-6.594-14.825-9.379
		c-1.235,5.727-2.42,10.412-3.197,15.152c-0.601,3.645,0.956,5.783,4.597,5.943c7.846,0.34,15.457,1.379,22.89,4.125
		c1.701,0.643,4.261-0.773,6.338-1.488c0.823-0.277,1.428-1.73,2.121-1.715c1.412,0.035,3.062,0.383,4.088,1.232
		c0.425,0.35-0.133,3.109-0.832,3.426c-3.114,1.369-6.804,3.736-9.625,3.049c-9.242-2.264-18.432-4.492-27.991-4.938
		c-0.909-0.051-2.007-0.477-2.66-1.104c-2.688-2.604-5.783-2.43-9.171-2.107c-3.354,0.328-6.937,0.377-10.254-3.92
		c3.28-0.084,5.59-0.166,7.917-0.215c4.414-0.072,5.552-0.809,6.511-5.061c2.213-9.885,4.318-19.785,6.388-29.697
		c1.174-5.652,0.69-6.363-4.757-8.787c-1.415-0.613-2.71-1.486-4.754-2.639c4.174-3.049,7.189-1.254,9.474,0.303
		c3.872,2.65,7.771,3.986,12.441,3.461c1.258-0.145,2.713,0.41,3.925,0.971c5.249,2.445,10.706,3.303,16.492,2.902
		c4.77-0.328,8.811,1.541,11.681,5.434c1.196,1.621,1.862,3.799-0.317,5.096c-2.01,1.184-3.826,0.291-4.525-2.01
		c-1.141-3.752-3.888-4.414-7.324-4.211c-6.145,0.377-11.968-1.039-17.664-3.291c-5.423-2.152-7.276-1.102-8.629,4.623
		c-0.598,2.459-1.116,4.939-1.609,7.42c-0.231,1.146-0.308,2.322-0.57,4.369c3.268,0.678,6.591,1.803,9.944,1.873
		c1.807,0.049,4.311-1.246,5.34-2.746c1.668-2.408,3.326-3.641,5.589-1.635c2.105,1.85,0.562,3.934-0.894,5.582
		C420.395,903.785,419.377,904.416,418.461,905.166z"/>
	<path fill-rule="evenodd" clip-rule="evenodd" d="M505.802,893.223c-2.774,0.615-4.347,1.064-5.953,1.305
		c-3.005,0.426-5.703,1.031-6.841,4.492c-0.289,0.871-2.006,1.854-2.986,1.766c-0.993-0.096-2.241-1.248-2.763-2.25
		c-3.776-7.373-15.867-10.566-22.714-5.902c-4.769,3.227-4.731,9.65,0.481,12.434c3.548,1.891,7.636,2.797,11.499,4.096
		c4.054,1.355,8.265,2.32,12.148,4.066c5.219,2.336,8.24,6.424,7.771,12.486c-0.469,6.076-3.561,10.396-9.328,12.178
		c-9.285,2.867-18.53,2.43-27.295-1.998c-4.331-2.191-7.78-5.566-7.78-10.836c0.016-4.146-2.177-5.865-5.672-6.967
		c-1.782-0.557-3.416-1.547-6.274-2.883c4.745-2.406,7.896-1.303,10.771,0.076c3.246,1.563,6.149,2.395,9.948,1.377
		c3.015-0.811,6.915-1.68,10.469,2.564c-2.614,0.533-4.477,1.125-6.366,1.248c-2.842,0.18-6.221,0.33-6.486,3.563
		c-0.182,2.299,1.295,5.32,3.004,7.049c4.673,4.744,18.006,5.775,23.813,2.348c6.345-3.738,6.489-13.502,0-16.83
		c-3.591-1.84-7.694-2.639-11.569-3.947c-4.039-1.352-8.229-2.418-12.091-4.201c-4.368-2.004-7.053-5.66-6.665-10.707
		c0.398-4.986,3.483-8.109,8.108-9.717c7.589-2.629,15.139-1.953,22.137,1.559c3.699,1.852,6.801,2.977,10.842,1.334
		c1.85-0.752,4.233-0.441,6.354-0.23C503.222,890.764,503.986,891.83,505.802,893.223z"/>
	<path fill-rule="evenodd" clip-rule="evenodd" d="M255.07,825.305c2.784,1.195,5.932,1.938,8.306,3.705
		c4.497,3.324,9.269,5.527,14.771,6.508c7.809,1.395,10.978,7.346,8.024,14.594c-3.945,9.744-7.938,19.465-11.934,29.182
		c-2.892,7.031-9.56,9.439-15.959,5.047c-5.739-3.934-11.767-6.561-18.48-8.303c-2.917-0.752-5.521-3.449-7.793-5.762
		c-2.35-2.395-2.593-5.471-1.015-8.652c5.104-10.287,10.164-20.596,15.161-30.932C247.939,826.975,250.955,825.822,255.07,825.305z
		 M257.515,830.74c-4.427-0.377-5.249,1.982-6.267,4.078c-4.381,9.1-8.736,18.213-13.12,27.313c-2.99,6.221-1.729,8.41,4.814,10.652
		c5.617,1.936,11.11,4.463,16.366,7.268c4.622,2.473,6.533,2.316,8.589-2.486c4.359-10.168,8.607-20.396,12.781-30.635
		c1.838-4.525,0.922-6.221-4.032-7.357c-5.771-1.309-11.073-3.506-15.793-7.152C259.547,831.418,257.854,830.906,257.515,830.74z"/>
	<path fill-rule="evenodd" clip-rule="evenodd" d="M570.801,901.051c-0.484-9.076,5.083-14.258,13.986-12.521
		c4.987,0.965,9.575,0.311,14.368-0.922c2.709-0.715,5.796-0.824,8.559-0.34c3.23,0.555,5.551,2.748,5.961,6.346
		c1.418,12.375,2.919,24.756,4.167,37.162c0.396,3.979-3.729,7.867-8.81,8.637c-1.891,0.297-3.887-0.156-5.823-0.021
		c-4.794,0.318-9.584,0.836-14.391,1.162c-2.842,0.207-5.798,0.713-8.557,0.217c-6.354-1.174-8.12-3.484-8.386-9.936
		C571.479,920.912,571.161,910.975,570.801,901.051z M600.447,934.404c0.027,0.209,0.064,0.424,0.087,0.631
		c0.786,0,1.563-0.027,2.336,0.01c0.965,0.049,1.936,0.182,2.903,0.219c4.224,0.131,5.87-1.242,5.509-5.41
		c-1.031-11.617-2.216-23.223-3.511-34.814c-0.376-3.387-2.543-4.953-5.617-3.936c-6.267,2.096-12.559,2.084-19.023,1.529
		c-4.975-0.426-6.751,1.654-6.476,6.553c0.591,10.482,1.189,20.963,1.766,31.443c0.317,5.734,2.604,7.334,8.32,6.123
		C591.264,935.797,595.875,935.168,600.447,934.404z"/>
	<path fill-rule="evenodd" clip-rule="evenodd" d="M720.198,446.512c-0.592-1.623-1.245-2.963-1.55-4.38
		c-1.548-7.104-5.672-12.781-10.163-18.189c-1.046-1.261-3.137-1.671-4.745-2.47c-0.713,2.081-2.204,4.248-1.961,6.209
		c0.269,2.118,2.069,4.077,3.302,6.051c4.508,7.249,3.102,17.22-3.352,22.242c-1.028,0.8-2.709,0.787-4.087,1.15
		c-0.28-1.246-1.082-2.639-0.752-3.692c2.192-7.065,0.204-13.456-2.688-19.787c-3.206-7.007-4.498-14.242-0.786-21.384
		c1.258-2.432,3.483-4.731,5.856-6.134c3.127-1.842,6.9-0.231,9.768,3.062c3.561,4.09,7.139,8.167,10.844,12.137
		C726.271,428.143,726.651,439.479,720.198,446.512z"/>
	<path fill-rule="evenodd" clip-rule="evenodd" d="M727.971,862.967c2.234,0.922,4.853,1.68,7.053,3.086
		c0.821,0.533,0.653,2.586,0.932,3.943c-1.431,0.205-3.62,1.115-4.178,0.523c-4.087-4.441-7.864-1.961-12.146-0.34
		c-4.118,1.561-8.596,2.346-12.979,2.941c-5.602,0.762-6.785,2.008-5.493,7.5c2.435,10.432,4.917,20.855,7.469,31.25
		c1.341,5.48,3.206,6.027,8.397,4.184c5.444-1.918,11.11-3.41,16.785-4.449c3.792-0.689,6.756-1.588,7.686-5.773
		c0.62-2.768,2.784-3.328,4.939-2.357c2.564,1.174,1.378,3.504,0.41,5.033c-2.893,4.563-7.239,7.152-12.646,7.244
		c-5.616,0.115-10.733,1.617-15.622,4.217c-3.028,1.607-6.163,2.115-9.597,1.148c-3.317-0.932-5.436-2.711-6.234-6.172
		c-2.59-11.197-5.357-22.34-7.904-33.539c-1.485-6.531,2.361-11.76,9.199-11.988c6.209-0.209,11.875-1.586,17.27-4.684
		C723.078,863.717,725.369,863.621,727.971,862.967z"/>
	<path fill-rule="evenodd" clip-rule="evenodd" d="M558.164,898.016c-2.262,1.133-4.27,1.596-5.854-1.225
		c-1.686-3-4.479-3.568-7.578-2.797c-5.604,1.406-11.13,1.273-16.76,0.016c-4.818-1.092-6.526,0.277-6.729,5.188
		c-0.476,11.09-0.864,22.184-1.139,33.281c-0.12,4.592,2.035,5.953,6.597,5.688c5.963-0.326,11.98-0.311,17.944,0.072
		c3.582,0.246,6.582,0.268,8.449-3.352c0.338-0.662,0.98-1.594,1.52-1.621c1.432-0.074,3.077-0.059,4.228,0.619
		c0.482,0.287,0.314,2.543-0.231,3.533c-1.982,3.609-8.639,6.355-13.447,5.131c-6.204-1.586-12.22-1.477-18.462-0.217
		c-7.953,1.609-12.962-3.123-12.636-11.326c0.401-10.502,0.786-21.012,1.208-31.518c0.305-7.355,5.191-11.629,12.272-9.947
		c6.064,1.432,11.801,1.33,17.848,0.027C551.789,888.174,557.501,892.293,558.164,898.016z"/>
	<path fill-rule="evenodd" clip-rule="evenodd" d="M195.935,796.74c1.658-2.934,3.693-1.801,4.707-0.748
		c5.191,5.4,11.323,8.934,18.555,10.762c0.987,0.252,1.638,1.781,2.436,2.711c-0.206,0.432-0.423,0.871-0.641,1.305
		c-2.048-0.484-4.115-0.844-6.135-1.447c-4.405-1.311-5.22-1.127-7.54,2.902c-5.383,9.258-10.717,18.537-15.976,27.859
		c-2.567,4.533-2.007,6.061,2.953,7.633c5.278,1.684,10.143,4.008,14.132,7.895c1.964,1.92,3.85,2.33,6.178,0.543
		c0.832-0.629,2.25-1.125,3.166-0.873c1.131,0.314,2.423,1.295,2.87,2.334c0.292,0.645-0.604,2.18-1.379,2.848
		c-2.882,2.531-8.871,2.531-12.5-0.705c-4.63-4.137-9.544-7.281-15.71-8.396c-1.057-0.195-2.336-0.98-2.885-1.879
		c-2.716-4.389-7.282-5.332-11.672-6.813c-2.453-0.82-5.249-1.643-5.616-6.221c2.433,0.787,4.297,1.299,6.085,1.986
		c5.296,2.047,6.489,1.697,9.418-3.27c4.852-8.203,9.667-16.445,14.455-24.686c3.228-5.555,2.986-6.545-1.961-10.783
		C197.787,798.766,196.844,797.664,195.935,796.74z"/>
	<path fill-rule="evenodd" clip-rule="evenodd" d="M159.484,554.896c3.881-1.222,6.405,0.801,8.052,3.305
		c2.663,4.031,4.828,8.424,6.985,12.77c1.877,3.786,3.459,7.72,6.319,11.484c0.167-1.357,0.441-2.701,0.459-4.042
		c0.056-4.88,0.056-9.755,0.01-14.634c-0.031-3.448,0.888-7.393-4.038-8.797c3.209,0,6.415,0,10.734,0
		c-5.777,2.906-4.474,7.66-4.517,12.006c-0.053,4.875,0.021,9.753-0.034,14.645c-0.019,1.668-0.271,3.352-0.432,5.225
		c-3.582-0.096-4.809-2.418-5.866-4.609c-1.855-3.859-3.391-7.865-5.173-11.764c-1.351-2.953-2.867-5.82-4.313-8.738
		c-0.447,0.087-0.895,0.157-1.348,0.244c0,6.633-0.2,13.275,0.158,19.895c0.073,1.441,2.114,2.783,3.514,4.49
		c-3.542,0-6.822,0-10.395,0c4.364-3.594,4.367-3.594,4.384-9.343c0.002-4.091-0.017-8.192,0.002-12.283
		C164.025,558.505,164.034,558.505,159.484,554.896z"/>
	<path fill-rule="evenodd" clip-rule="evenodd" d="M879.215,574.794c0.26-9.815,7.011-16.521,16.1-15.987
		c8.521,0.494,15.019,8.8,14.173,18.104c-1.008,11.223-10.625,18.191-20.25,14.693C882.871,589.293,879,582.805,879.215,574.794z
		 M907.188,574.853c-1.681-3.399-2.849-7.21-5.17-10.104c-4.381-5.448-11.693-5.046-16.119,0.337
		c-2.574,3.138-3.776,6.814-3.739,10.797c0.083,7.865,6.018,14.668,12.368,14.449C900.872,590.104,906.474,582.961,907.188,574.853z
		"/>
	<path fill-rule="evenodd" clip-rule="evenodd" d="M918.536,592.234c-1.847-7.059,0.21-12.916,5.545-16.57
		c2.398-1.645,5.109-2.809,7.649-4.223c2.543-1.405,4.827-3.33,3.847-6.414c-0.555-1.743-2.349-3.559-4.041-4.334
		c-2.648-1.208-5.395-0.289-7.42,1.913c-0.882,0.955-1.439,2.202-2.565,3.979c-1.221-1.729-1.933-3.229-3.085-4.271
		c-1.018-0.919-2.492-1.331-3.472-3.049c2.491,0.291,5.019,0.968,7.479,0.749c2.444-0.205,4.778-1.729,7.223-1.911
		c4.369-0.337,8.123,2.312,9.14,5.847c1.019,3.508-0.545,6.496-4.806,8.979c-1.674,0.98-3.482,1.741-5.19,2.661
		c-4.385,2.348-7.347,5.713-7.76,11.328c5.762-0.281,11.413-0.545,17.427-0.824c0,1.523,0,3.4,0,6.705
		C931.526,587.053,925.161,587.547,918.536,592.234z"/>
	<path fill-rule="evenodd" clip-rule="evenodd" d="M851.613,591.434c-1.631-5.906,0.259-11.824,5.219-15.393
		c2.349-1.693,5.068-2.869,7.611-4.284c2.676-1.466,5.372-3.256,4.394-6.694c-0.501-1.73-2.311-3.678-3.996-4.345
		c-3.145-1.246-6.135-0.204-8.117,2.796c-0.512,0.776-0.945,1.609-1.853,3.148c-1.249-1.791-1.96-3.294-3.109-4.311
		c-1.016-0.919-2.522-1.318-3.805-1.947c0.101-0.389,0.193-0.764,0.295-1.138c2.479,0.302,4.994,0.994,7.439,0.773
		c2.627-0.241,5.17-1.79,7.793-1.923c4.131-0.218,7.614,2.457,8.606,5.783c1.04,3.523-0.509,6.523-4.756,9.006
		c-1.681,0.979-3.484,1.754-5.203,2.663c-4.378,2.334-7.356,5.685-7.794,11.337c5.737-0.254,11.375-0.508,17.439-0.771
		c0,1.475,0,3.352,0,5.359c-3.802-1.139-7.057-2.857-10.324-2.881C858.318,588.59,855.186,590.332,851.613,591.434z"/>
	<path fill-rule="evenodd" clip-rule="evenodd" d="M966.91,590.877c-6.048,0-10.929,0-16.216,0c2.144-1.453,5.093-2.371,5.466-3.922
		c0.802-3.268,0.247-6.861,0.247-10.903c-4.322-0.205-8.459-0.411-13.203-0.642c4.065-4.974,7.636-9.354,11.205-13.736
		c1.499,2.99,1.526,3.014-0.851,6.113c-1.362,1.791-2.826,3.521-4.744,5.883c2.883,0,4.904,0,7.857,0c0-5.267,0-10.35,0-16.037
		c5.105,1.646,3.087,5.071,3.404,7.467c0.345,2.637,0.08,5.373,0.08,8.156c1.648,0.496,2.894,0.859,4.987,1.477
		c-2.019,0.726-3.292,1.188-4.756,1.721c-0.074,1.596-0.195,3.121-0.231,4.645C959.99,587.959,960.002,587.973,966.91,590.877z"/>
	<path fill-rule="evenodd" clip-rule="evenodd" d="M212.615,586.92c5.219-4.08,5.219-4.08,5.229-9.961
		c0-4.078,0.062-8.17-0.01-12.258c-0.074-3.717,1.465-8.169-5.629-8.942c0.533-0.339,1.066-0.667,1.597-0.994
		c3.123,0.218,6.245,0.485,9.369,0.63c2.312,0.098,4.62,0.133,6.933,0.012c3.268-0.156,5.062,1.139,5.289,5.855
		c-4.401-5.662-9.636-1.863-14.691-3.799c0,4.076,0,7.623,0,11.557c3.569,1.719,5.083-1.1,7.031-3.604c0,3.362,0,6.725,0,10.719
		c-2.117-2.078-3.23-5.955-7.031-3.762c0,3.92,0,7.842,0,11.557c3.606,0.158,6.671,0.619,9.646,0.303
		c1.572-0.156,3.003-1.658,4.489-2.553c-0.183,3.943-1.259,5.264-4.113,5.252C225.131,586.895,219.542,586.92,212.615,586.92z"/>
	<path fill-rule="evenodd" clip-rule="evenodd" d="M118.929,573.194c1.537,0.4,3.075,1.14,4.61,1.14
		c1.597,0,3.194-0.715,5.398-1.258c-0.449,1.174-0.514,1.922-0.817,2.033c-2.674,0.967-3.601,2.771-2.85,5.492
		c0.72,2.627,2.761,4.213,5.137,3.887c2.031-0.293,4.569-1.576,5.634-3.221c2.747-4.235,0.637-8.918-4.243-10.59
		c-1.839-0.628-3.804-0.991-5.512-1.875c-3.326-1.729-4.6-6.426-3-10.25c1.302-3.123,4.914-5.398,8.102-3.934
		c3.315,1.514,6.455,1.465,11.043,0.703c-3.521,1.754-5.85,2.904-8.182,4.066c0.624,0.846,1.24,1.68,1.865,2.515
		c-0.532-0.907-1.028-1.838-1.609-2.71c-1.46-2.202-3.777-3.389-6.009-2.285c-1.604,0.797-3.039,2.916-3.533,4.718
		c-0.678,2.444,0.642,4.586,3.2,5.505c2.017,0.729,4.149,1.139,6.111,1.976c3.623,1.535,5.339,4.791,5.028,9.026
		c-0.328,4.465-2.372,7.359-6.002,8.471c-4.261,1.32-8.43-0.664-10.015-4.756C122.215,579.078,119.88,575.012,118.929,573.194z"/>
	<path fill-rule="evenodd" clip-rule="evenodd" d="M209.205,559.389c-3.492-5.411-8.665-1.029-13.23-2.979
		c0,9.463,0,18.311,0,27.775c4.454-1.516,9.451,2.273,13.129-2.701c0.269,0.521,0.657,0.971,0.562,1.15
		c-0.729,1.283-1.406,3.438-2.371,3.596c-3.511,0.582-7.186,0.941-10.691,0.506c-3.055-0.375-3.356-3.314-3.348-6.002
		c0.022-6.823-0.067-13.66,0.028-20.487c0.08-5.351,0.983-6.05,6.184-5.76c1.732,0.084,3.48-0.171,5.223-0.218
		C208.237,554.172,208.636,554.582,209.205,559.389z"/>
	<path fill-rule="evenodd" clip-rule="evenodd" d="M155.581,586.375c-3.243,0-6.489,0-11.375,0
		c5.971-2.252,5.975-6.111,5.777-10.251c-0.213-4.261-0.02-8.544-0.013-12.814c0.006-3.342,0.545-6.972-5.398-7.13
		c0.401-0.4,0.799-0.811,1.206-1.211c3.388,0,6.778,0,10.472,0c-4.029,3.317-4.035,3.317-4.038,8.773
		c-0.009,4.855,0.009,9.719-0.009,14.574c-0.01,3.086-0.669,6.463,4.766,7.029C156.497,585.684,156.041,586.023,155.581,586.375z"/>
	<path fill-rule="evenodd" clip-rule="evenodd" d="M429.92,541.03c1.273-1.345,2.398-2.858,3.826-4.006
		c8.977-7.176,18.018-14.282,27.057-21.373c0.749-0.593,1.612-1.188,2.516-1.416c0.635-0.158,1.868,0.096,2.038,0.495
		c0.305,0.737,0.29,1.863-0.083,2.566c-0.441,0.8-1.369,1.355-2.158,1.925c-9.874,7.295-19.761,14.571-29.672,21.818
		c-0.715,0.533-1.637,0.764-2.46,1.139C430.632,541.79,430.271,541.403,429.92,541.03z"/>
	<path fill-rule="evenodd" clip-rule="evenodd" d="M438.404,547.685c3.958-7.189,24.424-24.215,31.382-26.477
		c1.066,2.685-0.895,3.811-2.531,5.007c-5.024,3.68-10.13,7.226-15.08,10.977c-3.389,2.59-6.558,5.471-9.887,8.156
		C441.366,546.101,440.241,546.595,438.404,547.685z"/>
	<path fill-rule="evenodd" clip-rule="evenodd" d="M682.698,553.978c-1.804,3.378-3.685,6.886-5.704,10.687
		c7.47,5.238,10.565-1.318,15.263-4.768c-0.496,1.85-0.995,3.715-1.477,5.566c0.207,0.169,0.41,0.326,0.625,0.485
		c2.747-2.761,5.494-5.521,8.24-8.28c0.405,0.305,0.793,0.605,1.175,0.896c-2.09,3.207-4.194,6.414-6.847,10.455
		c12.901-1.063,18.916-10.902,26.953-17.438c0.434,0.338,0.869,0.677,1.308,1.015c-0.852,2.3-1.709,4.6-2.797,7.53
		c3.566-1.309,6.474-2.387,9.377-3.449c0.217,0.482,0.426,0.955,0.643,1.427c-5.167,8.884-15.889,8.399-24.505,12.926
		c2.284,2.48,4.029,4.37,6.184,6.705c-5.496,2.177-8.496-2.821-12.756-3.173c-4.372-0.352-8.653-1.682-13.651-1.801
		c1.631,1.561,3.252,3.145,4.948,4.779c-5.386,1.211-19.798-8.508-24.225-16.352c2.451-0.398,5.14-0.229,7.101-1.329
		c2.093-1.165,3.482-3.558,5.228-5.373C679.014,553.217,680.287,551.836,682.698,553.978z"/>
</g>
</svg>
